<?xml version="1.0" encoding="utf-8"?>
<!-- Generator: Adobe Illustrator 19.0.0, SVG Export Plug-In . SVG Version: 6.00 Build 0)  -->
<svg version="1.1" id="Capa_1" xmlns="http://www.w3.org/2000/svg" xmlns:xlink="http://www.w3.org/1999/xlink" x="0px" y="0px"
	 viewBox="0 0 350 350" style="enable-background:new 0 0 350 350;" xml:space="preserve">
<style type="text/css">
	.st0{fill:url(#XMLID_2_);}
	.st1{fill:url(#XMLID_3_);}
	.st2{fill:url(#XMLID_4_);}
	.st3{fill:url(#XMLID_5_);}
	.st4{fill:url(#XMLID_6_);}
	.st5{fill:url(#XMLID_7_);}
	.st6{fill:url(#XMLID_8_);}
	.st7{fill:url(#XMLID_9_);}
</style>
<g id="XMLID_490_">
	<g id="XMLID_598_">
		<linearGradient id="XMLID_2_" gradientUnits="userSpaceOnUse" x1="-11.3224" y1="24.6674" x2="320.0109" y2="292.0008">
			<stop  offset="0" style="stop-color:#1E9CD7"/>
			<stop  offset="0.9944" style="stop-color:#00479A"/>
		</linearGradient>
		<path id="XMLID_1558_" class="st0" d="M308.9,287.1H41.1c-9.1,0-16.5-7.4-16.5-16.5V79.4c0-9.1,7.4-16.5,16.5-16.5h267.8
			c9.1,0,16.5,7.4,16.5,16.5v191.3C325.4,279.7,318,287.1,308.9,287.1z M41.1,75.7c-2,0-3.6,1.7-3.6,3.6v191.3c0,2,1.7,3.6,3.6,3.6
			h267.8c2,0,3.6-1.7,3.6-3.6V79.4c0-2-1.7-3.6-3.6-3.6H41.1z"/>
	</g>
	<g id="XMLID_599_">
		<linearGradient id="XMLID_3_" gradientUnits="userSpaceOnUse" x1="16.6728" y1="-10.0299" x2="348.0061" y2="257.3034">
			<stop  offset="0" style="stop-color:#1E9CD7"/>
			<stop  offset="0.9944" style="stop-color:#00479A"/>
		</linearGradient>
		<path id="XMLID_1557_" class="st1" d="M297.9,124.2H52.3c-3.5,0-6.4-2.9-6.4-6.4s2.9-6.4,6.4-6.4h245.6c3.5,0,6.4,2.9,6.4,6.4
			S301.5,124.2,297.9,124.2z"/>
	</g>
	<g id="XMLID_602_">
		<linearGradient id="XMLID_4_" gradientUnits="userSpaceOnUse" x1="-1.1701" y1="12.0846" x2="330.1632" y2="279.4179">
			<stop  offset="0" style="stop-color:#1E9CD7"/>
			<stop  offset="0.9944" style="stop-color:#00479A"/>
		</linearGradient>
		<path id="XMLID_1556_" class="st2" d="M274,187.5H142.4c-3.5,0-6.4-2.9-6.4-6.4s2.9-6.4,6.4-6.4H274c3.5,0,6.4,2.9,6.4,6.4
			S277.6,187.5,274,187.5z"/>
	</g>
	<g id="XMLID_603_">
		<linearGradient id="XMLID_5_" gradientUnits="userSpaceOnUse" x1="-20.1673" y1="35.6298" x2="311.166" y2="302.9631">
			<stop  offset="0" style="stop-color:#1E9CD7"/>
			<stop  offset="0.9944" style="stop-color:#00479A"/>
		</linearGradient>
		<path id="XMLID_1555_" class="st3" d="M274,226.3H142.4c-3.5,0-6.4-2.9-6.4-6.4s2.9-6.4,6.4-6.4H274c3.5,0,6.4,2.9,6.4,6.4
			S277.6,226.3,274,226.3z"/>
	</g>
	<g id="XMLID_601_">
		<linearGradient id="XMLID_6_" gradientUnits="userSpaceOnUse" x1="-56.1638" y1="80.2439" x2="275.1695" y2="347.5772">
			<stop  offset="0" style="stop-color:#1E9CD7"/>
			<stop  offset="0.9944" style="stop-color:#00479A"/>
		</linearGradient>
		<path id="XMLID_1552_" class="st4" d="M106.5,239.1H80.7c-10.2,0-18.4-8.3-18.4-18.4v-39.2c0-10.2,8.3-18.4,18.4-18.4h25.8
			c10.2,0,18.4,8.3,18.4,18.4v39.2C124.9,230.9,116.7,239.1,106.5,239.1z M80.7,175.9c-3.1,0-5.6,2.5-5.6,5.6v39.2
			c0,3.1,2.5,5.6,5.6,5.6h25.8c3.1,0,5.6-2.5,5.6-5.6v-39.2c0-3.1-2.5-5.6-5.6-5.6H80.7z"/>
	</g>
	<g id="XMLID_605_">
		<linearGradient id="XMLID_7_" gradientUnits="userSpaceOnUse" x1="-16.2811" y1="30.8133" x2="315.0522" y2="298.1466">
			<stop  offset="0" style="stop-color:#1E9CD7"/>
			<stop  offset="0.9944" style="stop-color:#00479A"/>
		</linearGradient>
		<path id="XMLID_604_" class="st5" d="M61,84.5L61,84.5c-4.8,0-8.6,3.9-8.6,8.6v0c0,4.8,3.9,8.6,8.6,8.6h0c4.8,0,8.6-3.9,8.6-8.6v0
			C69.6,88.4,65.7,84.5,61,84.5z"/>
		<linearGradient id="XMLID_8_" gradientUnits="userSpaceOnUse" x1="-5.3046" y1="17.2089" x2="326.0287" y2="284.5422">
			<stop  offset="0" style="stop-color:#1E9CD7"/>
			<stop  offset="0.9944" style="stop-color:#00479A"/>
		</linearGradient>
		<path id="XMLID_607_" class="st6" d="M88.8,84.5L88.8,84.5c-4.8,0-8.6,3.9-8.6,8.6v0c0,4.8,3.9,8.6,8.6,8.6h0
			c4.8,0,8.6-3.9,8.6-8.6v0C97.4,88.4,93.6,84.5,88.8,84.5z"/>
		<linearGradient id="XMLID_9_" gradientUnits="userSpaceOnUse" x1="5.672" y1="3.6045" x2="337.0053" y2="270.9379">
			<stop  offset="0" style="stop-color:#1E9CD7"/>
			<stop  offset="0.9944" style="stop-color:#00479A"/>
		</linearGradient>
		<path id="XMLID_1277_" class="st7" d="M116.6,84.5L116.6,84.5c-4.8,0-8.6,3.9-8.6,8.6v0c0,4.8,3.9,8.6,8.6,8.6h0
			c4.8,0,8.6-3.9,8.6-8.6v0C125.3,88.4,121.4,84.5,116.6,84.5z"/>
	</g>
</g>
</svg>
