<?xml version="1.0" encoding="utf-8"?>
<!-- Generator: Adobe Illustrator 19.0.0, SVG Export Plug-In . SVG Version: 6.00 Build 0)  -->
<svg version="1.1" id="Capa_1" xmlns="http://www.w3.org/2000/svg" xmlns:xlink="http://www.w3.org/1999/xlink" x="0px" y="0px"
	 viewBox="0 0 350 350" style="enable-background:new 0 0 350 350;" xml:space="preserve">
<style type="text/css">
	.st0{fill:#0D6DB5;}
</style>
<g id="XMLID_1613_">
	<path id="XMLID_1614_" class="st0" d="M175.4,194.3L175.4,194.3c2.2,0,4.4-0.6,6.1-1.8l0.5-0.3c0.1-0.1,0.2-0.1,0.3-0.2l5.5-4.6
		L319.5,78.8c-0.3-0.4-0.7-0.6-1.2-0.6H31.8c-0.4,0-0.7,0.1-0.9,0.3l137.7,113.5C170.3,193.5,172.8,194.3,175.4,194.3z M30.2,93.6
		v161l98.7-79.7L30.2,93.6z M221.2,175.4l98.6,79.2V94.1L221.2,175.4z M189.9,201.3c-3.9,3.2-9.1,5-14.5,5c-5.4,0-10.6-1.8-14.5-5
		l-22.6-18.6L30.2,270v0.3c0,0.8,0.7,1.5,1.5,1.5h286.4c0.8,0,1.5-0.7,1.5-1.5V270l-108-86.8L189.9,201.3z"/>
</g>
</svg>
