<?xml version="1.0" encoding="utf-8"?>
<!-- Generator: Adobe Illustrator 19.0.0, SVG Export Plug-In . SVG Version: 6.00 Build 0)  -->
<svg version="1.1" id="Capa_1" xmlns="http://www.w3.org/2000/svg" xmlns:xlink="http://www.w3.org/1999/xlink" x="0px" y="0px"
	 viewBox="0 0 350 350" style="enable-background:new 0 0 350 350;" xml:space="preserve">
<style type="text/css">
	.st0{fill:#0D6DB5;}
</style>
<g id="fpKE60.tif">
	<g id="XMLID_195_">
		<path id="XMLID_1436_" class="st0" d="M41.3,116.4c0.1-1.9,0.2-3.8,0.4-5.7c0.8-10.4,3.1-20.4,7.3-30c3.3-7.6,7.6-14.6,13-21
			c3.7-4.4,7.8-8.3,12.2-11.9c3.8-3.1,7.5-6.3,11.2-9.5c2.5-2.2,5.2-4.1,8.3-5.3c5.4-2.2,10.6-1.7,15.6,1.2c5,2.8,8.8,6.9,12.4,11.3
			c4.8,6,8.6,12.6,12.8,19c3,4.7,6,9.5,8.4,14.5C145,84,147,89.3,147.6,95c0.8,7.9-1.2,14.9-6.6,20.7c-3.1,3.3-6.7,6.2-10,9.3
			c-3.2,3-6.9,5.4-10.4,8c-4.3,3.1-7.6,7-9,12.3c-1.2,4.4-0.8,8.8,0.2,13.1c1.4,5.9,3.9,11.4,6.9,16.7c5.2,9.3,11.7,17.8,18.5,26
			c6.5,7.8,13.3,15.3,20.6,22.3c6.2,5.8,12.6,11.3,20,15.5c4.4,2.5,8.9,4.5,14,5.2c6.5,0.9,12.2-0.9,17.1-5.2c1-0.9,2-1.7,2.9-2.8
			c3.8-4.4,8.2-8.1,12.6-11.8c2.5-2.1,5-4.3,7.8-6c7-4.2,14.4-4.6,22.1-2.2c6.3,2,11.9,5.2,17,9.3c6.2,4.9,12.2,10.1,18.3,15.2
			c4.3,3.6,8.3,7.5,11.9,11.9c3,3.8,5.6,7.8,6.7,12.6c0.2,0.8,0.3,1.6,0.5,2.4c0,1,0,2,0,3c-0.1,0.4-0.2,0.9-0.3,1.3
			c-0.9,4.9-3.6,8.7-7.2,11.9c-3.5,3.2-7.2,6.1-10.5,9.4c-7.5,7.3-15.9,13.2-25.4,17.4c-9.5,4.3-19.5,6.8-29.8,7.5
			c-1.7,0.1-3.5,0.2-5.2,0.4c-1.4,0-2.7,0-4.1,0c-0.4,0-0.8-0.1-1.2-0.1c-2.6-0.2-5.2-0.3-7.8-0.6c-9.4-1-18.5-3.4-27.4-6.7
			c-14-5.3-26.9-12.8-39-21.5c-10.3-7.5-19.9-15.8-29.1-24.7c-10.7-10.4-20.6-21.5-30-33c-9.2-11.3-17.7-23-25.2-35.5
			c-8.9-14.8-16.3-30.3-20.8-47c-2.1-7.6-3.5-15.4-4-23.3c-0.1-1.8-0.2-3.6-0.4-5.4C41.3,119.1,41.3,117.8,41.3,116.4z"/>
	</g>
</g>
</svg>
