<?xml version="1.0" encoding="utf-8"?>
<!-- Generator: Adobe Illustrator 19.0.0, SVG Export Plug-In . SVG Version: 6.00 Build 0)  -->
<svg version="1.1" id="Capa_1" xmlns="http://www.w3.org/2000/svg" xmlns:xlink="http://www.w3.org/1999/xlink" x="0px" y="0px"
	 viewBox="-149 -100 350 350" style="enable-background:new -149 -100 350 350;" xml:space="preserve">
<style type="text/css">
	.st0{fill:#FFFFFF;}
	.st1{clip-path:url(#SVGID_2_);fill:#FFFFFF;}
	.st2{clip-path:url(#SVGID_4_);fill:#FFFFFF;}
	.st3{clip-path:url(#SVGID_6_);fill:#FFFFFF;}
</style>
<g id="XMLID_945_">
	<g id="XMLID_395_">
		<g id="XMLID_398_">
			<g>
				<path id="XMLID_399_" class="st0" d="M179.6-41.9l-10.4-10.4c-3.4-3.4-9.1-3.4-12.5,0L26.2,78c-0.5,0.5-1.4,0.5-1.9,0
					l-40.1-40.1c-1.3-1.3-3.3-1.3-4.5,0l-18.4,18.4c-1.3,1.3-1.3,3.3,0,4.5l61.5,61.5c1.3,1.3,3.3,1.3,4.5,0l4.2-4.2
					c0.1-0.1,0.2-0.2,0.2-0.2c0.8-0.5,1.6-1.1,2.4-1.8L179.6-29.4C183-32.8,183-38.5,179.6-41.9z"/>
			</g>
			<g>
				<defs>
					<path id="SVGID_1_" d="M179.6-41.9l-10.4-10.4c-3.4-3.4-9.1-3.4-12.5,0L26.2,78c-0.5,0.5-1.4,0.5-1.9,0l-40.1-40.1
						c-1.3-1.3-3.3-1.3-4.5,0l-18.4,18.4c-1.3,1.3-1.3,3.3,0,4.5l61.5,61.5c1.3,1.3,3.3,1.3,4.5,0l4.2-4.2c0.1-0.1,0.2-0.2,0.2-0.2
						c0.8-0.5,1.6-1.1,2.4-1.8L179.6-29.4C183-32.8,183-38.5,179.6-41.9z"/>
				</defs>
				<use xlink:href="#SVGID_1_"  style="overflow:visible;fill:#FFFFFF;"/>
				<clipPath id="SVGID_2_">
					<use xlink:href="#SVGID_1_"  style="overflow:visible;"/>
				</clipPath>
				<rect id="XMLID_400_" x="-40" y="-55.8" class="st1" width="0.3" height="179.4"/>
			</g>
			<g>
				<defs>
					<path id="SVGID_3_" d="M179.6-41.9l-10.4-10.4c-3.4-3.4-9.1-3.4-12.5,0L26.2,78c-0.5,0.5-1.4,0.5-1.9,0l-40.1-40.1
						c-1.3-1.3-3.3-1.3-4.5,0l-18.4,18.4c-1.3,1.3-1.3,3.3,0,4.5l61.5,61.5c1.3,1.3,3.3,1.3,4.5,0l4.2-4.2c0.1-0.1,0.2-0.2,0.2-0.2
						c0.8-0.5,1.6-1.1,2.4-1.8L179.6-29.4C183-32.8,183-38.5,179.6-41.9z"/>
				</defs>
				<use xlink:href="#SVGID_3_"  style="overflow:visible;fill:#FFFFFF;"/>
				<clipPath id="SVGID_4_">
					<use xlink:href="#SVGID_3_"  style="overflow:visible;"/>
				</clipPath>
				<rect id="XMLID_413_" x="-39.7" y="-55.8" class="st2" width="221.9" height="179.4"/>
			</g>
			<g>
				<defs>
					<path id="SVGID_5_" d="M179.6-41.9l-10.4-10.4c-3.4-3.4-9.1-3.4-12.5,0L26.2,78c-0.5,0.5-1.4,0.5-1.9,0l-40.1-40.1
						c-1.3-1.3-3.3-1.3-4.5,0l-18.4,18.4c-1.3,1.3-1.3,3.3,0,4.5l61.5,61.5c1.3,1.3,3.3,1.3,4.5,0l4.2-4.2c0.1-0.1,0.2-0.2,0.2-0.2
						c0.8-0.5,1.6-1.1,2.4-1.8L179.6-29.4C183-32.8,183-38.5,179.6-41.9z"/>
				</defs>
				<use xlink:href="#SVGID_5_"  style="overflow:visible;fill:#FFFFFF;"/>
				<clipPath id="SVGID_6_">
					<use xlink:href="#SVGID_5_"  style="overflow:visible;"/>
				</clipPath>
				<rect id="XMLID_414_" x="182.2" y="-55.8" class="st3" width="0.9" height="179.4"/>
			</g>
			<g>
				<path id="XMLID_1_" class="st0" d="M179.6-41.9l-10.4-10.4c-3.4-3.4-9.1-3.4-12.5,0L26.2,78c-0.5,0.5-1.4,0.5-1.9,0l-40.1-40.1
					c-1.3-1.3-3.3-1.3-4.5,0l-18.4,18.4c-1.3,1.3-1.3,3.3,0,4.5l61.5,61.5c1.3,1.3,3.3,1.3,4.5,0l4.2-4.2c0.1-0.1,0.2-0.2,0.2-0.2
					c0.8-0.5,1.6-1.1,2.4-1.8L179.6-29.4C183-32.8,183-38.5,179.6-41.9z"/>
			</g>
		</g>
		<path id="XMLID_393_" class="st0" d="M25.1,127c-1.7,0-3.5-0.7-4.9-2l-61.5-61.5c-1.3-1.3-2-3.1-2-4.9s0.7-3.6,2-4.9l18.4-18.4
			c2.7-2.7,7.1-2.7,9.7,0l38.5,38.5L154-54.9c4.9-4.9,12.9-4.9,17.7,0l10.4,10.4c4.9,4.9,4.9,12.9,0,17.7L36.7,118.8
			c-0.8,0.8-1.7,1.6-2.7,2.2l-4,4C28.6,126.3,26.8,127,25.1,127z M-35.8,58.6L25,119.4l3.8-3.8c0.3-0.3,0.6-0.5,0.9-0.8
			c0.6-0.4,1.2-0.8,1.6-1.3L177-32c2-2,2-5.3,0-7.4l0,0l-10.4-10.4c-2-2-5.3-2-7.4,0L28.8,80.6c-2,2-5.2,2-7.1,0l-39.8-39.8
			L-35.8,58.6z"/>
	</g>
	<path id="XMLID_501_" class="st0" d="M178,16.1l-18.4,18.4c2.8,9.3,4.7,19.1,5.6,29.2h-17.9c-3.8,0-7,3.1-7,7v8.7c0,3.8,3.1,7,7,7
		h17.9C159.7,154,105.7,208.2,38.1,214v-23.8c0-3.8-3.1-7-7-7h-8.7c-3.8,0-7,3.1-7,7v24c-68.3-5.2-123-59.6-128.6-127.8h20.8
		c3.8,0,7-3.1,7-7v-8.7c0-3.8-3.1-7-7-7h-20.8C-107.6-4.5-52.9-59,15.3-64.2v20.3c0,3.8,3.1,7,7,7H31c3.8,0,7-3.1,7-7v-20.2
		c23.8,2,45.9,10.1,64.8,22.6l16.9-16.9C92.5-77.7,60-88,26-88c-43.6,0-84.5,16.9-115.3,47.7S-137,31.4-137,75s16.9,84.5,47.7,115.3
		S-17.6,238,26,238s84.5-16.9,115.3-47.7S189,118.6,189,75C189,54.5,185.2,34.6,178,16.1z"/>
</g>
</svg>
