<?xml version="1.0"?>
<svg version="1.1" xmlns="http://www.w3.org/2000/svg" width="400" height="200" style="border: dashed 2px #aaa"><path fill="#225470" d="M21.11,103.29l0-2.115c0-5.969,3.431-9.964,10.105-9.964c5.076,0,8.319,1.739,8.319,1.739l-0.141,6.909l-4.23,0l-0.705-3.29s-1.128-0.188-2.679-0.188c-2.585,0-3.619,1.551-3.619,3.995l0,2.914l6.11,0l-0.141,4.7l-5.969,0l0,15.275l4.7,1.175l0,3.76l-15.51,0l0-3.76l3.76-1.175l0-15.275l-4.23,0l0-3.995z M64.56197,117.061l-15.604,0c0.282,3.76,2.444,5.969,5.687,5.969c3.901,0,7.896-2.209,7.896-2.209l2.021,3.901s-4.7,3.948-10.716,3.948c-8.084,0-12.22-4.7-12.22-12.69c0-8.225,4.653-13.63,12.549-13.63c7.003,0,10.669,4.324,10.669,11.045c0,1.786-0.282,3.525-0.282,3.666z M49.05197,112.69l8.507,0c0-2.679-1.128-4.7-3.854-4.7c-2.632,0-4.277,1.927-4.653,4.7z M81.27094,102.82l0.423,3.243s3.384-3.713,6.533-3.713c2.585,0,4.371,0.846,4.371,0.846l-0.376,9.024l-4.23,0l-0.705-3.995c-2.726,0-5.076,2.632-5.076,2.632l0,12.408l4.7,1.175l0,3.76l-15.51,0l0-3.76l3.76-1.175l0-15.275l-3.76-1.175l0-3.76z M107.61491,102.82l0.423,3.243s3.384-3.713,6.533-3.713c2.585,0,4.371,0.846,4.371,0.846l-0.376,9.024l-4.23,0l-0.705-3.995c-2.726,0-5.076,2.632-5.076,2.632l0,12.408l4.7,1.175l0,3.76l-15.51,0l0-3.76l3.76-1.175l0-15.275l-3.76-1.175l0-3.76z M122.67888,106.815l0-3.76l12.549-0.235l0,3.995l-2.632,0.47l4.183,13.16l3.995-13.019l-2.726-0.611l0-3.76l12.643-0.235l0,3.995l-2.914,0.611l-6.909,19.27c-2.256,6.204-5.311,12.784-12.784,12.784c-1.598,0-4.559-0.376-4.559-0.376l0.658-5.029l3.055,0c3.76,0,5.499-3.995,6.298-5.828l-8.366-20.68z"/><path fill="#" d=""/></svg>
