<?xml version="1.0" standalone="no"?>
<!DOCTYPE svg PUBLIC "-//W3C//DTD SVG 20010904//EN"
 "http://www.w3.org/TR/2001/REC-SVG-20010904/DTD/svg10.dtd">
<svg version="1.0" xmlns="http://www.w3.org/2000/svg"
 width="400.000000pt" height="290.000000pt" viewBox="0 0 400.000000 290.000000"
 preserveAspectRatio="xMidYMid meet">
<metadata>
Created by potrace 1.15, written by Peter Selinger 2001-2017
</metadata>
<g transform="translate(0.000000,290.000000) scale(0.100000,-0.100000)"
fill="#000000" stroke="none">
<path d="M1283 2048 c-12 -13 -56 -95 -98 -183 l-76 -160 -15 28 c-12 22 -21
28 -42 25 -37 -4 -50 -52 -33 -122 11 -46 19 -123 20 -201 0 -16 -6 -72 -14
-125 -23 -147 -30 -318 -16 -392 13 -67 59 -162 97 -203 19 -21 32 -25 77 -25
48 0 58 4 84 30 40 41 126 207 153 295 11 39 24 107 27 153 l6 83 23 -38 c29
-48 71 -73 137 -80 150 -15 226 61 227 227 0 109 -8 122 -44 75 -47 -61 -121
-112 -181 -126 -49 -11 -58 -10 -72 3 -13 14 -13 22 -3 53 11 33 14 35 28 22
49 -43 119 -14 197 78 l51 61 27 -29 c19 -21 33 -28 48 -24 16 4 19 2 14 -11
-4 -9 -10 -49 -12 -87 -4 -59 -1 -80 17 -123 43 -99 115 -136 184 -93 47 29
117 128 137 190 6 23 7 22 8 -11 1 -52 42 -139 80 -171 58 -49 121 -31 187 53
l33 41 15 -30 c9 -16 26 -37 38 -45 32 -23 106 -20 147 5 l34 20 -6 -30 c-4
-17 -12 -60 -18 -95 -11 -59 -14 -63 -31 -53 -13 9 -23 9 -36 1 -25 -17 -24
-173 3 -228 22 -46 69 -77 110 -74 34 3 42 24 44 105 1 29 28 182 62 340 79
378 88 436 68 471 -18 32 -60 58 -82 49 -9 -3 -43 -61 -76 -129 -32 -68 -73
-139 -90 -158 l-30 -35 36 85 c47 111 53 166 23 216 -35 55 -71 66 -156 47
-38 -8 -75 -17 -81 -19 -18 -5 -16 -56 3 -104 13 -31 23 -42 44 -47 l28 -5
-16 -39 c-8 -21 -19 -39 -23 -39 -5 0 -40 -27 -79 -61 -39 -34 -74 -59 -76
-56 -7 7 33 145 51 179 19 34 19 98 0 124 -23 34 -78 56 -109 44 -21 -8 -27
-6 -36 10 -13 24 -64 52 -82 45 -18 -7 -68 -109 -68 -138 0 -40 31 -117 53
-132 19 -14 20 -15 3 -15 -10 0 -49 -28 -87 -61 -39 -34 -72 -59 -75 -56 -7 7
32 144 51 179 19 34 19 98 0 124 -23 34 -78 56 -109 44 -21 -8 -27 -6 -36 10
-13 25 -64 52 -83 44 -8 -3 -23 -23 -32 -45 l-18 -40 -29 28 c-38 36 -92 36
-148 -1 -21 -14 -46 -23 -54 -20 -18 7 -56 -30 -56 -56 0 -10 -18 -44 -40 -76
-21 -31 -47 -78 -56 -106 l-16 -50 -24 42 c-13 23 -24 45 -23 49 0 3 21 20 47
36 90 58 95 121 12 163 -58 29 -78 28 -131 -7 -24 -17 -45 -28 -47 -26 -6 6
70 191 104 252 33 59 43 114 26 139 -9 14 -47 34 -65 34 -7 0 -23 -10 -34 -22z
m-16 -640 c34 -38 43 -64 43 -130 0 -125 -61 -304 -136 -403 l-29 -38 -6 30
c-9 45 8 331 26 441 17 97 30 122 65 122 9 0 26 -10 37 -22z"/>
</g>
</svg>
